<?xml version="1.0" encoding="UTF-8" standalone="no"?>
<!-- Created with Inkscape (http://www.inkscape.org/) -->

<svg
   xmlns:dc="http://purl.org/dc/elements/1.1/"
   xmlns:cc="http://creativecommons.org/ns#"
   xmlns:rdf="http://www.w3.org/1999/02/22-rdf-syntax-ns#"
   xmlns:svg="http://www.w3.org/2000/svg"
   xmlns="http://www.w3.org/2000/svg"
   xmlns:sodipodi="http://sodipodi.sourceforge.net/DTD/sodipodi-0.dtd"
   xmlns:inkscape="http://www.inkscape.org/namespaces/inkscape"
   width="50mm"
   height="50mm"
   viewBox="0 0 177.16535 177.16535"
   id="svg2"
   version="1.1"
   inkscape:version="0.91 r13725"
   sodipodi:docname="logo_razzo.svg">
  <defs
     id="defs4" />
  <sodipodi:namedview
     id="base"
     pagecolor="#ffffff"
     bordercolor="#666666"
     borderopacity="1.0"
     inkscape:pageopacity="0.0"
     inkscape:pageshadow="2"
     inkscape:zoom="0.50457912"
     inkscape:cx="69.815154"
     inkscape:cy="524.19925"
     inkscape:document-units="px"
     inkscape:current-layer="layer1"
     showgrid="false"
     inkscape:window-width="1360"
     inkscape:window-height="706"
     inkscape:window-x="-8"
     inkscape:window-y="-8"
     inkscape:window-maximized="1" />
  <metadata
     id="metadata7">
    <rdf:RDF>
      <cc:Work
         rdf:about="">
        <dc:format>image/svg+xml</dc:format>
        <dc:type
           rdf:resource="http://purl.org/dc/dcmitype/StillImage" />
        <dc:title></dc:title>
      </cc:Work>
    </rdf:RDF>
  </metadata>
  <g
     inkscape:label="Capa 1"
     inkscape:groupmode="layer"
     id="layer1"
     transform="translate(0,-875.19685)">
    <path
       style="opacity:1;fill:#800080;fill-opacity:1;stroke:#1c1ce0;stroke-width:0.36643869;stroke-miterlimit:4;stroke-dasharray:none;stroke-opacity:0.39086292"
       d="m 96.968952,877.08897 0,176.02673 7.726738,-7.971 0,-75.46699 37.08651,38.25909 4.57305,-4.7177 -36.33738,-37.48621 71.65594,0 0.61093,-0.63024 -85.315788,-88.01368 z m -5.977755,6.3e-4 -85.315162,88.01305 85.315162,88.01245 0,-11.8099 -0.0287,-0.03 0,-81.48614 -7.4118,0 0,0.25613 -33.908968,0 0,6.67143 33.908968,0 0,66.91238 -66.426702,-68.52678 66.426702,-68.52741 0,28.64645 7.4118,0 0,-36.29257 0.0287,-0.0296 0,-11.80985 z m 13.902013,19.83261 60.47342,62.38591 -60.47342,0 0,-62.38591 z"
       id="rect4136"
       inkscape:connector-curvature="0" />
  </g>
</svg>
